<?xml version="1.0" encoding="UTF-8" standalone="no"?>
<!-- Created with Inkscape (http://www.inkscape.org/) -->

<svg
   xmlns:dc="http://purl.org/dc/elements/1.1/"
   xmlns:cc="http://creativecommons.org/ns#"
   xmlns:rdf="http://www.w3.org/1999/02/22-rdf-syntax-ns#"
   xmlns:svg="http://www.w3.org/2000/svg"
   xmlns="http://www.w3.org/2000/svg"
   xmlns:sodipodi="http://sodipodi.sourceforge.net/DTD/sodipodi-0.dtd"
   xmlns:inkscape="http://www.inkscape.org/namespaces/inkscape"
   width="284.45819mm"
   height="562.63647mm"
   viewBox="0 0 284.4582 562.63647"
   version="1.1"
   id="svg8"
   inkscape:version="0.92.2 5c3e80d, 2017-08-06"
   sodipodi:docname="person-default.svg">
  <defs
     id="defs2">
    <inkscape:path-effect
       effect="bspline"
       id="path-effect1047"
       is_visible="true"
       weight="33.333333"
       steps="2"
       helper_size="0"
       apply_no_weight="true"
       apply_with_weight="true"
       only_selected="false" />
    <inkscape:path-effect
       effect="bspline"
       id="path-effect1039"
       is_visible="true"
       weight="33.333333"
       steps="2"
       helper_size="0"
       apply_no_weight="true"
       apply_with_weight="true"
       only_selected="false" />
    <inkscape:path-effect
       effect="bspline"
       id="path-effect1026"
       is_visible="true"
       weight="33.333333"
       steps="2"
       helper_size="0"
       apply_no_weight="true"
       apply_with_weight="true"
       only_selected="false" />
    <inkscape:path-effect
       effect="bspline"
       id="path-effect1013"
       is_visible="true"
       weight="33.333333"
       steps="2"
       helper_size="0"
       apply_no_weight="true"
       apply_with_weight="true"
       only_selected="false" />
    <inkscape:path-effect
       only_selected="false"
       apply_with_weight="true"
       apply_no_weight="true"
       helper_size="0"
       steps="2"
       weight="33.333333"
       is_visible="true"
       id="path-effect1005"
       effect="bspline" />
    <inkscape:path-effect
       effect="bspline"
       id="path-effect999"
       is_visible="true"
       weight="33.333333"
       steps="2"
       helper_size="0"
       apply_no_weight="true"
       apply_with_weight="true"
       only_selected="false" />
    <inkscape:path-effect
       effect="bspline"
       id="path-effect991"
       is_visible="true"
       weight="33.333333"
       steps="2"
       helper_size="0"
       apply_no_weight="true"
       apply_with_weight="true"
       only_selected="false" />
    <inkscape:path-effect
       effect="bspline"
       id="path-effect987"
       is_visible="true"
       weight="33.333333"
       steps="2"
       helper_size="0"
       apply_no_weight="true"
       apply_with_weight="true"
       only_selected="false" />
    <inkscape:path-effect
       only_selected="false"
       apply_with_weight="true"
       apply_no_weight="true"
       helper_size="0"
       steps="2"
       weight="33.333333"
       is_visible="true"
       id="path-effect981"
       effect="bspline" />
    <inkscape:path-effect
       only_selected="false"
       apply_with_weight="true"
       apply_no_weight="true"
       helper_size="0"
       steps="2"
       weight="33.333333"
       is_visible="true"
       id="path-effect971"
       effect="bspline" />
    <inkscape:path-effect
       only_selected="false"
       apply_with_weight="true"
       apply_no_weight="true"
       helper_size="0"
       steps="2"
       weight="33.333333"
       is_visible="true"
       id="path-effect959"
       effect="bspline" />
    <inkscape:path-effect
       only_selected="false"
       apply_with_weight="true"
       apply_no_weight="true"
       helper_size="0"
       steps="2"
       weight="33.333333"
       is_visible="true"
       id="path-effect948"
       effect="bspline" />
    <inkscape:path-effect
       effect="bspline"
       id="path-effect942"
       is_visible="true"
       weight="33.333333"
       steps="2"
       helper_size="0"
       apply_no_weight="true"
       apply_with_weight="true"
       only_selected="false" />
    <inkscape:path-effect
       only_selected="false"
       apply_with_weight="true"
       apply_no_weight="true"
       helper_size="0"
       steps="2"
       weight="33.333333"
       is_visible="true"
       id="path-effect935"
       effect="bspline" />
    <inkscape:path-effect
       only_selected="false"
       apply_with_weight="true"
       apply_no_weight="true"
       helper_size="0"
       steps="2"
       weight="33.333333"
       is_visible="true"
       id="path-effect926"
       effect="bspline" />
    <inkscape:path-effect
       only_selected="false"
       apply_with_weight="true"
       apply_no_weight="true"
       helper_size="0"
       steps="2"
       weight="33.333333"
       is_visible="true"
       id="path-effect922"
       effect="bspline" />
    <inkscape:path-effect
       effect="bspline"
       id="path-effect934"
       is_visible="true"
       weight="33.333333"
       steps="2"
       helper_size="0"
       apply_no_weight="true"
       apply_with_weight="true"
       only_selected="false" />
    <inkscape:path-effect
       effect="bspline"
       id="path-effect914"
       is_visible="true"
       weight="33.333333"
       steps="2"
       helper_size="0"
       apply_no_weight="true"
       apply_with_weight="true"
       only_selected="false" />
    <inkscape:path-effect
       only_selected="false"
       apply_with_weight="true"
       apply_no_weight="true"
       helper_size="0"
       steps="2"
       weight="33.333333"
       is_visible="true"
       id="path-effect1150"
       effect="bspline" />
    <inkscape:path-effect
       only_selected="false"
       apply_with_weight="true"
       apply_no_weight="true"
       helper_size="0"
       steps="2"
       weight="33.333333"
       is_visible="true"
       id="path-effect1142"
       effect="bspline" />
    <inkscape:path-effect
       only_selected="false"
       apply_with_weight="true"
       apply_no_weight="true"
       helper_size="0"
       steps="2"
       weight="33.333333"
       is_visible="true"
       id="path-effect1130"
       effect="bspline" />
    <inkscape:path-effect
       only_selected="false"
       apply_with_weight="true"
       apply_no_weight="true"
       helper_size="0"
       steps="2"
       weight="33.333333"
       is_visible="true"
       id="path-effect1120"
       effect="bspline" />
    <inkscape:path-effect
       effect="bspline"
       id="path-effect1112"
       is_visible="true"
       weight="33.333333"
       steps="2"
       helper_size="0"
       apply_no_weight="true"
       apply_with_weight="true"
       only_selected="false" />
    <inkscape:path-effect
       only_selected="false"
       apply_with_weight="true"
       apply_no_weight="true"
       helper_size="0"
       steps="2"
       weight="33.333333"
       is_visible="true"
       id="path-effect1106"
       effect="bspline" />
    <inkscape:path-effect
       only_selected="false"
       apply_with_weight="true"
       apply_no_weight="true"
       helper_size="0"
       steps="2"
       weight="33.333333"
       is_visible="true"
       id="path-effect1098"
       effect="bspline" />
    <inkscape:path-effect
       only_selected="false"
       apply_with_weight="true"
       apply_no_weight="true"
       helper_size="0"
       steps="2"
       weight="33.333333"
       is_visible="true"
       id="path-effect1094"
       effect="bspline" />
    <inkscape:path-effect
       effect="bspline"
       id="path-effect1028"
       is_visible="true"
       weight="33.333333"
       steps="2"
       helper_size="0"
       apply_no_weight="true"
       apply_with_weight="true"
       only_selected="false" />
    <inkscape:path-effect
       effect="bspline"
       id="path-effect1019"
       is_visible="true"
       weight="33.333333"
       steps="2"
       helper_size="0"
       apply_no_weight="true"
       apply_with_weight="true"
       only_selected="false" />
    <inkscape:path-effect
       effect="bspline"
       id="path-effect1014"
       is_visible="true"
       weight="33.333333"
       steps="2"
       helper_size="0"
       apply_no_weight="true"
       apply_with_weight="true"
       only_selected="false" />
    <inkscape:path-effect
       effect="bspline"
       id="path-effect976"
       is_visible="true"
       weight="33.333333"
       steps="2"
       helper_size="0"
       apply_no_weight="true"
       apply_with_weight="true"
       only_selected="false" />
    <inkscape:path-effect
       effect="bspline"
       id="path-effect962"
       is_visible="true"
       weight="33.333333"
       steps="2"
       helper_size="0"
       apply_no_weight="true"
       apply_with_weight="true"
       only_selected="false" />
    <inkscape:path-effect
       effect="bspline"
       id="path-effect953"
       is_visible="true"
       weight="33.333333"
       steps="2"
       helper_size="0"
       apply_no_weight="true"
       apply_with_weight="true"
       only_selected="false" />
    <inkscape:path-effect
       effect="bspline"
       id="path-effect949"
       is_visible="true"
       weight="33.333333"
       steps="2"
       helper_size="0"
       apply_no_weight="true"
       apply_with_weight="true"
       only_selected="false" />
    <inkscape:path-effect
       effect="bspline"
       id="path-effect945"
       is_visible="true"
       weight="33.333333"
       steps="2"
       helper_size="0"
       apply_no_weight="true"
       apply_with_weight="true"
       only_selected="false" />
    <inkscape:path-effect
       effect="bspline"
       id="path-effect940"
       is_visible="true"
       weight="33.333333"
       steps="2"
       helper_size="0"
       apply_no_weight="true"
       apply_with_weight="true"
       only_selected="false" />
    <inkscape:path-effect
       effect="bspline"
       id="path-effect936"
       is_visible="true"
       weight="33.333333"
       steps="2"
       helper_size="0"
       apply_no_weight="true"
       apply_with_weight="true"
       only_selected="false" />
    <inkscape:path-effect
       effect="bspline"
       id="path-effect932"
       is_visible="true"
       weight="33.333333"
       steps="2"
       helper_size="0"
       apply_no_weight="true"
       apply_with_weight="true"
       only_selected="false" />
    <inkscape:path-effect
       effect="bspline"
       id="path-effect928"
       is_visible="true"
       weight="33.333333"
       steps="2"
       helper_size="0"
       apply_no_weight="true"
       apply_with_weight="true"
       only_selected="false" />
    <inkscape:path-effect
       effect="bspline"
       id="path-effect924"
       is_visible="true"
       weight="33.333333"
       steps="2"
       helper_size="0"
       apply_no_weight="true"
       apply_with_weight="true"
       only_selected="false" />
    <inkscape:path-effect
       effect="bspline"
       id="path-effect920"
       is_visible="true"
       weight="33.333333"
       steps="2"
       helper_size="0"
       apply_no_weight="true"
       apply_with_weight="true"
       only_selected="false" />
    <inkscape:path-effect
       effect="bspline"
       id="path-effect916"
       is_visible="true"
       weight="33.333333"
       steps="2"
       helper_size="0"
       apply_no_weight="true"
       apply_with_weight="true"
       only_selected="false" />
    <inkscape:path-effect
       only_selected="false"
       apply_with_weight="true"
       apply_no_weight="true"
       helper_size="0"
       steps="2"
       weight="33.333333"
       is_visible="true"
       id="path-effect910"
       effect="bspline" />
    <inkscape:path-effect
       effect="bspline"
       id="path-effect906"
       is_visible="true"
       weight="33.333333"
       steps="2"
       helper_size="0"
       apply_no_weight="true"
       apply_with_weight="true"
       only_selected="false" />
    <inkscape:path-effect
       effect="bspline"
       id="path-effect902"
       is_visible="true"
       weight="33.333333"
       steps="2"
       helper_size="0"
       apply_no_weight="true"
       apply_with_weight="true"
       only_selected="false" />
    <inkscape:path-effect
       effect="bspline"
       id="path-effect898"
       is_visible="true"
       weight="33.333333"
       steps="2"
       helper_size="0"
       apply_no_weight="true"
       apply_with_weight="true"
       only_selected="false" />
    <inkscape:path-effect
       effect="bspline"
       id="path-effect894"
       is_visible="true"
       weight="33.333333"
       steps="2"
       helper_size="0"
       apply_no_weight="true"
       apply_with_weight="true"
       only_selected="false" />
    <inkscape:path-effect
       effect="bspline"
       id="path-effect890"
       is_visible="true"
       weight="33.333333"
       steps="2"
       helper_size="0"
       apply_no_weight="true"
       apply_with_weight="true"
       only_selected="false" />
    <inkscape:path-effect
       effect="bspline"
       id="path-effect886"
       is_visible="true"
       weight="33.333333"
       steps="2"
       helper_size="0"
       apply_no_weight="true"
       apply_with_weight="true"
       only_selected="false" />
    <inkscape:path-effect
       effect="bspline"
       id="path-effect882"
       is_visible="true"
       weight="33.333333"
       steps="2"
       helper_size="0"
       apply_no_weight="true"
       apply_with_weight="true"
       only_selected="false" />
    <inkscape:path-effect
       effect="bspline"
       id="path-effect878"
       is_visible="true"
       weight="33.333333"
       steps="2"
       helper_size="0"
       apply_no_weight="true"
       apply_with_weight="true"
       only_selected="false" />
    <inkscape:path-effect
       effect="bspline"
       id="path-effect874"
       is_visible="true"
       weight="33.333333"
       steps="2"
       helper_size="0"
       apply_no_weight="true"
       apply_with_weight="true"
       only_selected="false" />
    <inkscape:path-effect
       effect="bspline"
       id="path-effect870"
       is_visible="true"
       weight="33.333333"
       steps="2"
       helper_size="0"
       apply_no_weight="true"
       apply_with_weight="true"
       only_selected="false" />
    <inkscape:path-effect
       only_selected="false"
       apply_with_weight="true"
       apply_no_weight="true"
       helper_size="0"
       steps="2"
       weight="33.333333"
       is_visible="true"
       id="path-effect866"
       effect="bspline" />
    <inkscape:path-effect
       effect="bspline"
       id="path-effect862"
       is_visible="true"
       weight="33.333333"
       steps="2"
       helper_size="0"
       apply_no_weight="true"
       apply_with_weight="true"
       only_selected="false" />
    <inkscape:path-effect
       effect="bspline"
       id="path-effect858"
       is_visible="true"
       weight="33.333333"
       steps="2"
       helper_size="0"
       apply_no_weight="true"
       apply_with_weight="true"
       only_selected="false" />
    <inkscape:path-effect
       effect="bspline"
       id="path-effect854"
       is_visible="true"
       weight="33.333333"
       steps="2"
       helper_size="0"
       apply_no_weight="true"
       apply_with_weight="true"
       only_selected="false" />
    <inkscape:path-effect
       only_selected="false"
       apply_with_weight="true"
       apply_no_weight="true"
       helper_size="0"
       steps="2"
       weight="33.333333"
       is_visible="true"
       id="path-effect1050"
       effect="bspline" />
    <inkscape:path-effect
       effect="bspline"
       id="path-effect1046"
       is_visible="true"
       weight="33.333333"
       steps="2"
       helper_size="0"
       apply_no_weight="true"
       apply_with_weight="true"
       only_selected="false" />
    <inkscape:path-effect
       effect="bspline"
       id="path-effect1038"
       is_visible="true"
       weight="33.333333"
       steps="2"
       helper_size="0"
       apply_no_weight="true"
       apply_with_weight="true"
       only_selected="false" />
    <inkscape:path-effect
       effect="bspline"
       id="path-effect1031"
       is_visible="true"
       weight="33.333333"
       steps="2"
       helper_size="0"
       apply_no_weight="true"
       apply_with_weight="true"
       only_selected="false" />
    <inkscape:path-effect
       effect="bspline"
       id="path-effect1027"
       is_visible="true"
       weight="33.333333"
       steps="2"
       helper_size="0"
       apply_no_weight="true"
       apply_with_weight="true"
       only_selected="false" />
    <inkscape:path-effect
       effect="bspline"
       id="path-effect952"
       is_visible="true"
       weight="33.333333"
       steps="2"
       helper_size="0"
       apply_no_weight="true"
       apply_with_weight="true"
       only_selected="false" />
    <inkscape:path-effect
       effect="bspline"
       id="path-effect912"
       is_visible="true"
       weight="33.333333"
       steps="2"
       helper_size="0"
       apply_no_weight="true"
       apply_with_weight="true"
       only_selected="false" />
    <inkscape:path-effect
       effect="bspline"
       id="path-effect908"
       is_visible="true"
       weight="33.333333"
       steps="2"
       helper_size="0"
       apply_no_weight="true"
       apply_with_weight="true"
       only_selected="false" />
    <inkscape:path-effect
       effect="bspline"
       id="path-effect904"
       is_visible="true"
       weight="33.333333"
       steps="2"
       helper_size="0"
       apply_no_weight="true"
       apply_with_weight="true"
       only_selected="false" />
    <inkscape:path-effect
       effect="bspline"
       id="path-effect896"
       is_visible="true"
       weight="33.333333"
       steps="2"
       helper_size="0"
       apply_no_weight="true"
       apply_with_weight="true"
       only_selected="false" />
    <inkscape:path-effect
       effect="bspline"
       id="path-effect879"
       is_visible="true"
       weight="33.333333"
       steps="2"
       helper_size="0"
       apply_no_weight="true"
       apply_with_weight="true"
       only_selected="false" />
    <inkscape:path-effect
       effect="bspline"
       id="path-effect871"
       is_visible="true"
       weight="33.333333"
       steps="2"
       helper_size="0"
       apply_no_weight="true"
       apply_with_weight="true"
       only_selected="false" />
    <inkscape:path-effect
       effect="bspline"
       id="path-effect867"
       is_visible="true"
       weight="33.333333"
       steps="2"
       helper_size="0"
       apply_no_weight="true"
       apply_with_weight="true"
       only_selected="false" />
    <inkscape:path-effect
       effect="bspline"
       id="path-effect855"
       is_visible="true"
       weight="33.333333"
       steps="2"
       helper_size="0"
       apply_no_weight="true"
       apply_with_weight="true"
       only_selected="false" />
    <inkscape:path-effect
       effect="bspline"
       id="path-effect847"
       is_visible="true"
       weight="33.333333"
       steps="2"
       helper_size="0"
       apply_no_weight="true"
       apply_with_weight="true"
       only_selected="false" />
    <inkscape:path-effect
       effect="bspline"
       id="path-effect843"
       is_visible="true"
       weight="33.333333"
       steps="2"
       helper_size="0"
       apply_no_weight="true"
       apply_with_weight="true"
       only_selected="false" />
  </defs>
  <sodipodi:namedview
     id="base"
     pagecolor="#ffffff"
     bordercolor="#666666"
     borderopacity="1.0"
     inkscape:pageopacity="0.0"
     inkscape:pageshadow="2"
     inkscape:zoom="0.29089406"
     inkscape:cx="993.81456"
     inkscape:cy="1476.4201"
     inkscape:document-units="mm"
     inkscape:current-layer="layer1"
     showgrid="false"
     showborder="false"
     inkscape:snap-global="false"
     showguides="false"
     inkscape:guide-bbox="true"
     fit-margin-top="0"
     fit-margin-left="0"
     fit-margin-right="0"
     fit-margin-bottom="0"
     inkscape:window-width="1366"
     inkscape:window-height="709"
     inkscape:window-x="0"
     inkscape:window-y="0"
     inkscape:window-maximized="1" />
  <metadata
     id="metadata5">
    <rdf:RDF>
      <cc:Work
         rdf:about="">
        <dc:format>image/svg+xml</dc:format>
        <dc:type
           rdf:resource="http://purl.org/dc/dcmitype/StillImage" />
        <dc:title></dc:title>
      </cc:Work>
    </rdf:RDF>
  </metadata>
  <g
     inkscape:label="Layer 1"
     inkscape:groupmode="layer"
     id="layer1"
     transform="translate(139.63569,-10.600926)">
    <path
       style="fill:#53676c;stroke:none;stroke-width:1.32291663;stroke-linecap:butt;stroke-linejoin:miter;stroke-miterlimit:4;stroke-dasharray:none;stroke-opacity:1"
       d="m -32.183369,284.46276 0.54777,5.29476 -54.5915,16.57266 2.57297,235.39285 h 46.30673 l 14.15883,-167.54429 14.1583097,167.54429 H 37.276988 l 2.572454,-235.39285 -54.590981,-16.57266 0.54777,-5.29476 -8.9948,2.73058 z"
       id="path843"
       inkscape:connector-curvature="0" />
    <path
       style="fill:#c87137;fill-opacity:1;stroke:none;stroke-width:5;stroke-linecap:butt;stroke-linejoin:miter;stroke-miterlimit:4;stroke-dasharray:none;stroke-opacity:1"
       d="M 869.92773 15.294922 C 859.79929 15.44685 850.47974 19.195247 845.21289 28.310547 C 834.67919 46.541147 840.34757 86.219749 843.99609 106.08398 C 847.64461 125.94823 849.26611 125.94829 841.56836 123.51758 C 833.87061 121.08687 816.85293 116.22307 806.32031 119.05859 C 795.7877 121.89412 791.73688 132.4283 801.86523 142.15234 C 811.99359 151.87639 836.30178 160.7902 856.55859 166.86719 C 859.32708 167.69773 862.01263 168.46809 864.63281 169.1875 C 863.86643 177.10361 867.9348 193.06113 878.43555 228.44531 C 897.07112 291.2413 935.97441 415.25008 953.79492 477.2168 C 968.04814 526.77904 968.81346 536.69382 955.91016 539.92383 C 952.68071 540.73224 948.60916 541.12865 943.66211 541.61523 C 918.94902 544.04599 872.76438 548.90809 831.8457 548.9082 C 790.92703 548.90832 755.27223 544.04623 728.93945 552.14844 C 702.60667 560.25064 685.59099 581.3162 699.36523 602.78906 C 713.13948 624.26192 757.70442 646.13988 780.79688 657.88867 C 803.88931 669.63747 805.51054 671.25742 846.42969 661.12891 C 887.34884 651.0004 967.5554 629.12746 1012.125 614.54102 C 1056.6946 599.95457 1065.6074 592.66234 1071.2793 583.34375 C 1071.7203 582.61915 1072.1301 581.86655 1072.5215 581.08984 C 1077.1632 571.87789 1077.5862 557.07448 1056.2891 490.56836 C 1033.1962 418.45476 984.59474 285.61061 960.2793 217.52734 C 950.02006 188.80149 944.10879 171.70728 939.76758 161.5625 C 941.89226 159.88676 941.96659 157.17635 940.82422 146.60938 C 939.20364 131.619 935.15245 100.8298 929.48047 76.521484 C 923.80848 52.213173 916.51694 34.386405 899.50195 23.853516 C 890.99446 18.58707 880.05617 15.142994 869.92773 15.294922 z "
       transform="matrix(0.26458333,0,0,0.26458333,-139.63569,10.600926)"
       id="path947" />
    <path
       style="fill:#16502d;stroke:none;stroke-width:1.32291663;stroke-linecap:butt;stroke-linejoin:miter;stroke-miterlimit:4;stroke-dasharray:none;stroke-opacity:1"
       d="m 49.115909,145.15696 c 13.518983,1.65306 25.161641,3.80421 30.876914,5.49563 5.715273,1.69143 5.50343,2.92345 5.231702,9.92857 -0.271728,7.00513 -0.603218,19.77942 -2.53926,26.04975 -1.936041,6.27033 -5.476839,6.03456 -16.100195,5.32717 -10.623356,-0.70738 -28.325857,-1.88615 -43.655713,-1.68682 -15.3298551,0.19933 -28.2849353,1.77689 -30.9097443,-6.17329 -2.6248087,-7.95017 5.0807039,-25.42696 16.6312401,-33.58799 11.5505362,-8.16103 26.9460732,-7.00607 40.4650562,-5.35302 z"
       id="path938"
       inkscape:connector-curvature="0"
       inkscape:original-d="m 50.991922,144.65882 c 11.643006,2.15101 23.285663,4.30216 34.927971,6.45344 -0.211482,1.23181 -0.423322,2.46383 -0.635507,3.69594 -0.331246,12.7781 -0.662732,25.55239 -0.994625,38.3288 -3.540526,-0.23592 -7.081324,-0.47169 -10.622511,-0.70733 -17.705526,-1.17913 -35.408027,-2.3579 -53.112559,-3.53665 -12.9552003,1.57748 -25.9102803,3.15504 -38.86593,4.73276 7.70628,-17.47788 15.4117997,-34.95466 23.1171697,-52.43178 15.3954703,1.15479 30.7910073,2.30975 46.1859913,3.46482 z"
       inkscape:path-effect="#path-effect940" />
    <path
       style="fill:#453748;stroke:none;stroke-width:1.32291663;stroke-linecap:butt;stroke-linejoin:miter;stroke-miterlimit:4;stroke-dasharray:none;stroke-opacity:1"
       d="m -65.657809,300.08609 -20.56929,6.24409 0.55397,50.69043 c 4.86573,-3.60965 12.64789,-11.76361 16.70441,-21.74906 4.18044,-10.2905 4.39481,-22.5102 3.53725,-32.80058 -0.0674,-0.80891 -0.14449,-1.60121 -0.22634,-2.38488 z"
       id="path960"
       inkscape:connector-curvature="0" />
    <path
       id="path967"
       d="m 18.544611,300.08609 20.569291,6.24409 -0.55397,50.69043 c -4.86573,-3.60965 -12.647891,-11.76361 -16.704411,-21.74906 -4.18044,-10.2905 -4.39481,-22.5102 -3.53725,-32.80058 0.0674,-0.80891 0.14449,-1.60121 0.22634,-2.38488 z"
       style="fill:#453748;stroke:none;stroke-width:1.32291663;stroke-linecap:butt;stroke-linejoin:miter;stroke-miterlimit:4;stroke-dasharray:none;stroke-opacity:1"
       inkscape:connector-curvature="0" />
    <path
       style="fill:#1a1a1a;stroke:none;stroke-width:1.32291663;stroke-linecap:butt;stroke-linejoin:miter;stroke-miterlimit:4;stroke-dasharray:none;stroke-opacity:1"
       d="m -78.133615,551.20939 c -9.593669,1.44698 -11.737497,3.37643 -14.739099,4.77007 -3.001602,1.39363 -6.86001,2.25105 -10.397466,3.10861 -3.53745,0.85756 -6.75295,1.71502 -8.30738,3.75174 -1.55444,2.03671 -1.44726,5.25217 -1.28649,7.18169 0.16078,1.92952 0.37514,2.57262 6.64754,2.89427 6.272401,0.32165 18.596411,0.32165 29.208301,0.32165 10.61189,0 19.509,0 24.010995,-0.10734 4.501996,-0.10734 4.60919,-0.32174 4.823304,-0.96409 0.214114,-0.64235 0.536172,-1.71587 1.07195,-1.60874 0.535779,0.10712 1.28634,1.39379 1.768888,1.98331 0.482548,0.58951 0.69692,0.48232 3.265857,0.21473 2.568936,-0.2676 7.507058,-0.697 10.133134,-0.80416 2.626075,-0.10717 2.947663,0.10722 2.143858,-3.64386 -0.803805,-3.75109 -2.733621,-11.47036 -3.698323,-15.54369 -0.964703,-4.07333 -0.964703,-4.50208 -9.481051,-4.23428 -8.516349,0.26779 -25.570348,1.23311 -35.164018,2.68009 z"
       id="path900"
       inkscape:connector-curvature="0"
       inkscape:original-d="m -85.583719,550.72715 c -2.14357,1.92921 -4.2874,3.85866 -6.4315,5.78837 -3.85914,0.85738 -7.71755,1.71479 -11.576711,2.57259 -3.21575,0.85733 -6.43124,1.71482 -9.64726,2.5726 0.10746,3.2158 0.21465,6.43126 0.32157,9.64727 0.21467,0.64293 0.42903,1.28603 0.64315,1.92944 12.330361,0 24.654371,0 36.981161,0 8.89699,0 17.7941,0 26.69075,0 0.10745,-0.21463 0.21465,-0.42902 0.32157,-0.64315 0.32137,-1.07058 0.64342,-2.1441 0.96473,-3.21574 0.75039,1.28566 1.50095,2.57233 2.25103,3.85889 0.21466,-0.10744 0.42903,-0.21463 0.64315,-0.32157 4.92378,-0.42839 9.8619,-0.85781 14.79246,-1.2863 0.32182,0.2141 0.64341,0.42849 0.96472,0.64315 -1.92882,-7.7166 -3.85863,-15.43587 -5.78835,-23.15342 2.7e-4,-0.42903 2.7e-4,-0.85778 0,-1.2863 -17.03271,0.96388 -34.08671,1.92918 -51.13047,2.89417 z"
       inkscape:path-effect="#path-effect902" />
    <rect
       style="opacity:1;fill:#374548;fill-opacity:1;fill-rule:nonzero;stroke:none;stroke-width:1.32291663;stroke-miterlimit:4;stroke-dasharray:none;stroke-opacity:1"
       id="rect848"
       width="61.0993"
       height="18.651367"
       x="-90.728905"
       y="534.00519"
       rx="5" />
    <path
       inkscape:original-d="m 42.363235,550.72715 c 2.14357,1.92921 4.2874,3.85866 6.4315,5.78837 3.85914,0.85738 7.71755,1.71479 11.57671,2.57259 3.21575,0.85733 6.43124,1.71482 9.64726,2.5726 -0.10746,3.2158 -0.21465,6.43126 -0.32157,9.64727 -0.21467,0.64293 -0.42903,1.28603 -0.64315,1.92944 -12.33036,0 -24.65437,0 -36.98116,0 -8.896994,0 -17.794104,0 -26.6907543,0 -0.10745,-0.21463 -0.21465,-0.42902 -0.32157,-0.64315 -0.32137,-1.07058 -0.64342,-2.1441 -0.96473,-3.21574 -0.75039,1.28566 -1.50095,2.57233 -2.25103,3.85889 -0.21466,-0.10744 -0.42903,-0.21463 -0.64315,-0.32157 -4.92378,-0.42839 -9.8619,-0.85781 -14.7924597,-1.2863 -0.32182,0.2141 -0.64341,0.42849 -0.96472,0.64315 1.92882,-7.7166 3.85863,-15.43587 5.7883497,-23.15342 -2.7e-4,-0.42903 -2.7e-4,-0.85778 0,-1.2863 17.03271,0.96388 34.0867103,1.92918 51.1304743,2.89417 z"
       inkscape:connector-curvature="0"
       id="path908"
       d="m 34.913129,551.20939 c 9.593671,1.44698 11.737499,3.37643 14.739101,4.77007 3.001602,1.39363 6.86001,2.25105 10.397462,3.10861 3.537453,0.85756 6.752949,1.71502 8.307385,3.75174 1.554436,2.03671 1.447256,5.25217 1.286484,7.18169 -0.160773,1.92952 -0.37514,2.57262 -6.647538,2.89427 -6.272398,0.32165 -18.596408,0.32165 -29.2083,0.32165 -10.611892,0 -19.509002,0 -24.0109975,-0.10734 -4.5019955,-0.10734 -4.6091901,-0.32174 -4.8233038,-0.96409 -0.2141136,-0.64235 -0.5361716,-1.71587 -1.0719503,-1.60874 -0.5357788,0.10712 -1.2863396,1.39379 -1.7688875,1.98331 -0.4825479,0.58951 -0.6969205,0.48232 -3.265857,0.21473 -2.5689365,-0.2676 -7.5070581,-0.697 -10.1331339,-0.80416 -2.626075,-0.10717 -2.947663,0.10722 -2.143858,-3.64386 0.803805,-3.75109 2.73362,-11.47036 3.698323,-15.54369 0.9647027,-4.07333 0.9647027,-4.50208 9.48105112,-4.23428 8.51634838,0.26779 25.57034788,1.23311 35.16401988,2.68009 z"
       style="fill:#1a1a1a;stroke:none;stroke-width:1.32291663;stroke-linecap:butt;stroke-linejoin:miter;stroke-miterlimit:4;stroke-dasharray:none;stroke-opacity:1"
       inkscape:path-effect="#path-effect910" />
    <rect
       rx="5"
       y="534.00519"
       x="-14.837154"
       height="18.651367"
       width="61.0993"
       id="rect850"
       style="opacity:1;fill:#374548;fill-opacity:1;fill-rule:nonzero;stroke:none;stroke-width:1.32291663;stroke-miterlimit:4;stroke-dasharray:none;stroke-opacity:1" />
    <path
       style="fill:#c87137;fill-opacity:1;stroke:none;stroke-width:1.32291663;stroke-linecap:butt;stroke-linejoin:miter;stroke-miterlimit:4;stroke-dasharray:none;stroke-opacity:1"
       d="m -77.543609,185.29983 c -0.166703,-10e-4 -0.340815,0.005 -0.521933,0.0196 -5.071298,0.40669 -15.646783,6.94308 -23.431638,11.96103 -8.89699,5.73479 -14.14923,9.48642 -16.72198,12.38064 -2.57276,2.89421 -2.46561,4.93062 -6.05648,17.36483 -3.59087,12.43421 -10.88004,35.26614 -13.93507,47.53974 -3.05502,12.2736 -1.87581,13.98853 10.29085,26.79836 10.85786,11.43185 29.604851,30.80874 42.11629,43.76012 1.508125,1.56115 3.773586,3.90575 5.047753,5.22605 0.478401,0.49567 0.683659,0.69564 1.12603,1.15393 0.104767,-0.11184 0.205525,-0.20439 0.310575,-0.31832 0.764876,-0.82958 1.536465,-1.71448 2.301669,-2.64896 0.765204,-0.93445 1.524357,-1.91881 2.263944,-2.94762 0.73959,-1.02877 1.459646,-2.10174 2.147673,-3.21426 0.688026,-1.11252 1.343885,-2.26428 1.954403,-3.44993 0.610518,-1.18565 1.17552,-2.40532 1.682584,-3.65352 0.522554,-1.2863 0.983244,-2.60282 1.387512,-3.94187 0.24348,-0.80648 0.428143,-1.63444 0.632002,-2.45568 -5.546217,-5.86332 -12.275497,-12.97247 -19.255155,-20.4556 -4.916953,-5.27161 -9.644398,-10.38558 -13.095324,-14.29006 -9.379306,-10.6121 -10.022436,-12.8632 -7.557166,-22.18832 2.46528,-9.32512 8.039607,-25.72651 12.648844,-37.30315 4.60924,-11.57664 8.253812,-18.33025 12.541353,-27.28051 4.287544,-8.95025 9.218666,-20.09854 5.413624,-21.81365 -0.356722,-0.16079 -0.79025,-0.23851 -1.29036,-0.24288 z"
       id="path939"
       inkscape:connector-curvature="0" />
    <path
       style="fill:#16502d;stroke:none;stroke-width:1.32291663;stroke-linecap:butt;stroke-linejoin:miter;stroke-miterlimit:4;stroke-dasharray:none;stroke-opacity:1"
       d="m -94.087048,147.14261 c -4.850919,1.44004 -10.156642,4.32029 -15.007842,16.14502 -4.85121,11.82473 -9.24712,32.5916 -11.59683,42.82421 -2.34971,10.23261 -2.65289,9.92943 -0.37892,10.46003 2.27397,0.5306 7.12492,1.89493 12.80956,2.12229 5.68464,0.22736 12.203342,-0.68223 24.936651,-6.51835 12.733309,-5.83611 31.683169,-16.59963 33.199079,-28.4994 1.515911,-11.89977 -14.401517,-24.9369 -24.558068,-31.45537 -10.156551,-6.51847 -14.552711,-6.51847 -19.40363,-5.07843 z"
       id="path914"
       inkscape:connector-curvature="0"
       inkscape:original-d="m -93.632569,145.70257 c -5.30545,2.87998 -10.611171,5.76023 -15.917161,8.64075 -4.39617,20.76908 -8.79207,41.53595 -13.18851,62.30432 -0.30292,-0.30345 -0.6061,-0.60663 -0.90955,-0.90955 4.85121,1.36407 9.70216,2.72839 14.55284,4.09299 6.51848,-0.90979 13.037181,-1.81937 19.555371,-2.72866 18.94841,-10.76281 37.89827,-21.52633 56.84701,-32.2891 -15.91663,-13.03697 -31.83406,-26.0741 -47.75149,-39.11075 -4.39591,-2.6e-4 -8.79207,-2.6e-4 -13.18851,0 z"
       inkscape:path-effect="#path-effect916" />
    <path
       style="fill:#217844;stroke:none;stroke-width:1.32291663;stroke-linecap:butt;stroke-linejoin:miter;stroke-miterlimit:4;stroke-dasharray:none;stroke-opacity:1"
       d="m -24.181559,113.24016 c -0.14392,-0.0216 -0.28617,0.0365 -0.42685,0.1571 -1.50062,1.28611 -2.78724,9.64769 -5.14542,13.72112 -2.35818,4.07344 -5.7883,3.85902 -15.54272,5.46685 -9.75442,1.60784 -25.83317,5.03784 -35.26606,7.61039 -9.4329,2.57256 -12.21976,4.28755 -14.47095,6.75308 -2.2512,2.46552 -3.96572,5.68113 -3.21531,31.83836 0.7504,26.15724 3.96573,75.24631 6.43113,101.07962 2.4654,25.83332 4.18059,28.4056 12.54187,30.3351 8.36127,1.9295 23.36744,3.21598 34.19378,3.64474 9.13543,0.36179 15.16765,0.1156 19.25154,-0.0998 0.65513,0.43434 1.43421,0.478 2.36212,0.52814 3.96606,0.21439 10.61215,0.64322 21.4384897,0.21447 10.82634,-0.42876 25.8330103,-1.71471 34.1942953,-3.64424 8.361275,-1.9295 10.076468,-4.50228 12.541869,-30.3356 2.465401,-25.83331 5.680723,-74.92238 6.431132,-101.07962 0.750408,-26.15723 -0.964631,-29.37232 -3.215825,-31.83785 -2.251192,-2.46553 -5.038051,-4.18052 -14.470952,-6.75308 -9.432899,-2.57255 -25.5116393,-6.00306 -35.2660593,-7.6109 -9.7544197,-1.60783 -13.1845397,-1.39342 -15.5427197,-5.46685 -2.35819,-4.07344 -3.64429,-12.4345 -5.14491,-13.72061 -0.29019,-0.24871 -0.58829,-0.22769 -0.88987,0.20929 -0.26506,-0.66315 -0.52921,-0.97079 -0.78858,-1.00976 z"
       id="path1044"
       inkscape:connector-curvature="0" />
    <path
       style="opacity:1;fill:#c87137;fill-opacity:1;fill-rule:nonzero;stroke:none;stroke-width:1.32291663;stroke-miterlimit:4;stroke-dasharray:none;stroke-opacity:1"
       d="m -33.911309,106.00154 -5.29167,23.15362 h 0.17622 a 15.186268,10.132886 0 0 0 -0.28163,1.9203 15.186268,10.132886 0 0 0 15.18613,10.13271 15.186268,10.132886 0 0 0 15.1861597,-10.13271 15.186268,10.132886 0 0 0 -0.28731,-1.9203 h 0.22013 l -5.2916597,-23.15362 z"
       id="rect980"
       inkscape:connector-curvature="0" />
    <path
       id="path1020"
       d="m -33.911523,106.00131 -3.230811,14.13609 c 2.935605,0.6572 5.99672,1.00562 9.145695,1.00562 h 7.465693 c 3.258055,0 6.421847,-0.3748 9.45007,-1.07693 l -3.214275,-14.06478 z"
       style="opacity:0.447;fill:#552200;fill-opacity:1;fill-rule:nonzero;stroke:none;stroke-width:1.35955143;stroke-miterlimit:4;stroke-dasharray:none;stroke-opacity:1"
       inkscape:connector-curvature="0" />
    <path
       inkscape:connector-curvature="0"
       style="opacity:1;fill:#c87137;fill-opacity:1;fill-rule:nonzero;stroke:none;stroke-width:1.32291663;stroke-miterlimit:4;stroke-dasharray:none;stroke-opacity:1"
       d="m -49.164919,36.862914 c -16.89616,0 -18.97305,9.460933 -19.00762,22.909195 a 5.1452041,5.7525128 0 0 0 -2.71973,5.067909 5.1452041,5.7525128 0 0 0 2.86752,5.150072 c 0.0157,1.101476 0.0269,2.215282 0.0269,3.343465 v 6.809404 c 0,20.204691 17.83965,36.470641 39.99963,36.470641 h 7.46879 c 22.1599797,0 40.00015,-16.26595 40.00015,-36.470641 v -6.809404 c 0,-2.081037 0.0363,-4.106587 0.0754,-6.090583 a 5.1452041,5.7525128 0 0 0 3.13986,-5.297353 5.1452041,5.7525128 0 0 0 -3.0949,-5.268412 C 19.190171,44.895988 16.204781,36.862914 0.63720073,36.862914 Z"
       id="rect829" />
    <path
       style="fill:#000000;stroke:none;stroke-width:0.79374999;stroke-linecap:butt;stroke-linejoin:miter;stroke-miterlimit:4;stroke-dasharray:none;stroke-opacity:1"
       d="m -69.445096,58.461929 c -0.160798,-2.197552 -0.482374,-6.592413 -0.643154,-9.540161 -0.160779,-2.947747 -0.160779,-4.448504 0.214351,-7.50308 0.37513,-3.054576 1.125605,-7.664635 3.966146,-11.952142 2.840541,-4.287507 7.771681,-8.25386 11.952075,-10.933563 4.180394,-2.679702 7.610733,-4.073277 10.451208,-5.198746 2.840476,-1.125469 5.091715,-1.983084 9.914788,-2.411789 4.823073,-0.428706 12.220353,-0.428706 18.330171,6.4e-5 6.109818,0.42877 10.9336182,1.286334 14.8092795,2.708478 3.8756613,1.422143 6.9505556,3.50868 9.9519661,4.848573 3.0014104,1.339892 6.0028404,1.983055 8.1465064,3.483593 2.143667,1.500538 3.430056,3.858913 4.180421,7.289059 0.750365,3.430145 0.964737,7.932022 0.482378,13.07736 -0.482359,5.145338 -1.6614,10.93337 -2.894197,12.541279 -1.232797,1.607908 -2.519031,-0.964556 -5.091527,-4.126583 -2.572495,-3.162026 -6.4315539,-6.913892 -8.5752586,-8.575496 -2.1437047,-1.661604 -2.5724697,-1.232842 -4.98561179,5.5e-4 -2.41314211,1.233392 -6.80529141,3.268779 -12.80832461,4.555165 -6.003033,1.286385 -13.613103,1.822305 -19.723123,2.143889 -6.110021,0.321583 -10.719091,0.428771 -15.060453,1.179103 -4.341361,0.750332 -8.41441,2.143744 -12.112664,4.01964 -3.698253,1.875896 -7.020502,4.233621 -8.682341,5.41299 -1.661839,1.17937 -1.661839,1.17937 -1.822636,-1.018183 z"
       id="path906"
       inkscape:connector-curvature="0"
       inkscape:original-d="m -69.284299,60.659482 c -0.32131,-4.395126 -0.64289,-8.789987 -0.96473,-13.184584 2.6e-4,-1.500877 2.6e-4,-3.001634 0,-4.502054 0.75047,-4.608698 1.50095,-9.218756 2.25103,-13.827737 4.93076,-3.966102 9.8619,-7.932455 14.79246,-11.898285 3.4302,-1.393676 6.86054,-2.78725 10.29041,-4.180479 2.25108,-0.857718 4.50232,-1.715332 6.75308,-2.572601 7.39544,-2.65e-4 14.79272,-2.65e-4 22.18869,0 4.8237197,0.857238 9.6475197,1.714803 14.47088973,2.572601 2.89430997,2.03629 6.00299997,4.073023 9.00409997,6.10993 3.0015803,0.642874 6.0030103,1.286037 9.0041103,1.929452 1.28648,2.357798 2.57287,4.716173 3.85891,7.074656 0.21465,4.501966 0.42903,9.003843 0.64314,13.506162 -1.1789,5.788413 -2.35795,11.576443 -3.53732,17.365064 -1.28611,-2.573002 -2.57234,-5.145469 -3.85891,-7.717806 -3.85848,-3.751824 -7.7175403,-7.503688 -11.5767003,-11.255135 -0.42851,0.428503 -0.85727,0.85727 -1.28631,1.286301 -4.3973,2.037636 -8.78945,4.073022 -13.1845797,6.109931 -7.6109,0.535734 -15.22097,1.071652 -22.83185,1.607875 -4.60915,0.106932 -9.21822,0.21412 -13.82773,0.321575 -4.07326,1.393312 -8.14631,2.786721 -12.21986,4.18048 -3.32294,2.358138 -6.64519,4.715862 -9.96883,7.074654 2.6e-4,-2.65e-4 2.6e-4,-2.65e-4 0,0 z"
       sodipodi:nodetypes="ccccccccccccccccccccccc"
       inkscape:path-effect="#path-effect908" />
    <rect
       style="opacity:1;fill:#000000;fill-opacity:1;fill-rule:nonzero;stroke:none;stroke-width:0.35723731;stroke-miterlimit:4;stroke-dasharray:none;stroke-opacity:1"
       id="rect937"
       width="4.9120002"
       height="8"
       x="-46.088268"
       y="63.676292"
       rx="9.001255" />
    <rect
       rx="9.001255"
       y="63.676292"
       x="-9.046566"
       height="8"
       width="4.9120002"
       id="rect939"
       style="opacity:1;fill:#000000;fill-opacity:1;fill-rule:nonzero;stroke:none;stroke-width:0.35723731;stroke-miterlimit:4;stroke-dasharray:none;stroke-opacity:1" />
    <rect
       style="opacity:1;fill:#000000;fill-opacity:1;fill-rule:nonzero;stroke:none;stroke-width:0.5291667;stroke-miterlimit:4;stroke-dasharray:none;stroke-opacity:1"
       id="rect946"
       width="0.9520548"
       height="15.232877"
       x="-7.2366624"
       y="73.763496"
       transform="rotate(13.689476)"
       rx="0.41869166" />
    <rect
       transform="matrix(0.11170906,0.99374096,-0.99287833,0.11913282,0,0)"
       y="29.302721"
       x="80.211159"
       height="8.0060339"
       width="0.97622782"
       id="rect948"
       style="opacity:1;fill:#000000;fill-opacity:1;fill-rule:nonzero;stroke:none;stroke-width:0.52917403;stroke-miterlimit:4;stroke-dasharray:none;stroke-opacity:1"
       rx="0.41869166" />
    <path
       style="fill:none;stroke:none;stroke-width:1.32291663;stroke-linecap:butt;stroke-linejoin:miter;stroke-miterlimit:4;stroke-dasharray:none;stroke-opacity:1"
       d="m -30.153859,96.904504 c 3.195837,-0.122117 6.391337,-0.244221 9.104297,-1.228858 2.712959,-0.984636 4.943847,-2.831952 5.954094,-3.776523 1.010247,-0.944572 0.800057,-0.986885 0.589629,-1.029246"
       id="path950"
       inkscape:connector-curvature="0"
       inkscape:original-d="m -30.153859,96.904504 c 3.19583,-0.122311 6.39133,-0.244416 9.58653,-0.366313 2.23075,-1.847152 4.46164,-3.694465 6.69199,-5.541389 -0.20983,-0.04251 -0.42002,-0.08482 -0.6305,-0.126925"
       inkscape:path-effect="#path-effect952" />
    <path
       style="opacity:1;fill:#000000;fill-opacity:1;fill-rule:nonzero;stroke:none;stroke-width:0;stroke-miterlimit:4;stroke-dasharray:none;stroke-opacity:1"
       d="m -2.2280093,58.204581 a 12.264982,15.331228 23.517839 0 0 -11.7238297,1.924787 15.034494,15.331228 23.517839 0 1 10.9579397,0.330672 15.034494,15.331228 23.517839 0 1 7.24084,6.803164 12.264982,15.331228 23.517839 0 0 -6.47495,-9.058623 z"
       id="path973"
       inkscape:connector-curvature="0" />
    <path
       inkscape:connector-curvature="0"
       id="path978"
       d="m -47.880799,58.204581 a 15.331228,12.264982 66.482161 0 1 11.72383,1.924787 15.331228,15.034494 66.482161 0 0 -10.95794,0.330672 15.331228,15.034494 66.482161 0 0 -7.24084,6.803164 15.331228,12.264982 66.482161 0 1 6.47495,-9.058623 z"
       style="opacity:1;fill:#000000;fill-opacity:1;fill-rule:nonzero;stroke:none;stroke-width:0;stroke-miterlimit:4;stroke-dasharray:none;stroke-opacity:1" />
    <path
       inkscape:path-effect="#path-effect1142"
       inkscape:original-d="m -30.153859,96.904504 c 3.19583,-0.122311 6.39133,-0.244416 9.58653,-0.366313 2.23075,-1.847152 4.46164,-3.694465 6.69199,-5.541389 -0.20983,-0.04251 -0.42002,-0.08482 -0.6305,-0.126925"
       inkscape:connector-curvature="0"
       id="path1140"
       d="m -30.153859,96.904504 c 3.195837,-0.122117 6.391337,-0.244221 9.104297,-1.228858 2.712959,-0.984636 4.943847,-2.831952 5.954094,-3.776523 1.010247,-0.944572 0.800057,-0.986885 0.589629,-1.029246"
       style="fill:#c87137;fill-opacity:1;stroke:#000000;stroke-width:1.32299995;stroke-linecap:butt;stroke-linejoin:miter;stroke-miterlimit:4;stroke-dasharray:none;stroke-opacity:1" />
    <path
       inkscape:original-d="m -30.153859,96.904504 c 3.19583,-0.122311 6.39133,-0.244416 9.58653,-0.366313 2.23075,-1.847152 4.46164,-3.694465 6.69199,-5.541389 -0.20983,-0.04251 -0.42002,-0.08482 -0.6305,-0.126925"
       inkscape:connector-curvature="0"
       id="path969"
       d="m -30.153859,96.904504 c 3.195837,-0.122117 6.391337,-0.244221 9.104297,-1.228858 2.712959,-0.984636 4.943847,-2.831952 5.954094,-3.776523 1.010247,-0.944572 0.800057,-0.986885 0.589629,-1.029246"
       style="fill:none;stroke:none;stroke-width:1.32291663;stroke-linecap:butt;stroke-linejoin:miter;stroke-miterlimit:4;stroke-dasharray:none;stroke-opacity:1"
       inkscape:path-effect="#path-effect971" />
  </g>
</svg>
